<svg id="Layer_1" data-name="Layer 1" xmlns="http://www.w3.org/2000/svg" viewBox="0 0 1000 1000"><defs><style>.cls-1{fill:#5f7fb1;}</style></defs><path class="cls-1" d="M181.6,130.38c-10.18-4.61-21.4-8.25-32.6-8.95-7.36-.47-16.61-.44-21.93,5.56-7.29,9.3-.59,29.35,2.65,38.89,6.73,19.85,20,46.37,41.56,53.11,11.39,3.55,22.77,0,31.78-7.6,9.57-8.09,19.49-19.54,19.79-32.88C223.37,155.27,200.4,138.89,181.6,130.38Z" transform="translate(0 0)"/><path class="cls-1" d="M60.84,209.46c-2.2,8.42,3.29,17.49,11,20.95C79.89,234,91.74,228.27,91,218.25,90,205.93,66.07,194.77,60.84,209.46Z" transform="translate(0 0)"/><path class="cls-1" d="M469.56,92.45c-48.86-5.72-99.4,3-146.81,14.61-20.51,5-40.87,10.76-60.82,17.67-9,3.14-19.12,6.09-27.71,10.86,8.56,8.64,15.58,18.71,19.13,30.34a53.79,53.79,0,0,1,1.75,23.91c25.32,4.39,50.27,11.19,75.62,15.58,42.49,7.37,86.33,13.12,129.51,10,32.35-2.34,80.56-11.64,83.27-52.43,1.25-18.73-4.72-37.63-19.17-50C509.28,100.08,488.8,94.7,469.56,92.45ZM485.08,176c-16.5,9.29-36.77,11.69-55.29,13.2a466.82,466.82,0,0,1-74.41-.38c-21.55-1.7-43.37-4.17-64.37-9.51-7.6-1.93-26.92-5.49-28.45-15.72,0-.07,0-.14,0-.21a5.33,5.33,0,0,1-.13-.83c-.42-7.53,10.29-11.71,15.71-14,13.06-5.55,27-9.06,40.84-12.11a541.58,541.58,0,0,1,71.74-10.88c22.58-1.89,45.69-2.79,68.16.64,12.94,2,31.88,5.77,38.31,19.09C503.21,157.78,496.23,169.72,485.08,176Z" transform="translate(0 0)"/><path class="cls-1" d="M732.87,53.66c-45.51,9.83-94.31,28.22-129.51,59.92a4.58,4.58,0,0,1-.6.44q-1.08,2.78-2.55,5.69c1.69,1.91,3.27,3.89,4.74,5.92a223.63,223.63,0,0,1,44.22-33c28.08-16,61.72-26.71,93.94-18.38,17.17,4.44,34.67,13.17,45.93,27.33,9,11.25,10.29,25.49,16.31,38.13,6.93,14.56,21.11,31.64,38.6,32.08,16.77.43,27.67-13,30.48-28.78,4.05-22.85,1.11-50.57-14.78-68.55C829.32,40.1,773,45,732.87,53.66Z" transform="translate(0 0)"/><path class="cls-1" d="M210.61,61.3c-14.56,5.17-3.5,31.75,9.68,30.43a13.76,13.76,0,0,0,10.35-20.5C226.5,64.29,218.84,59.15,210.61,61.3Z" transform="translate(0 0)"/><path class="cls-1" d="M385.75,301.27C343.49,266,295.44,238.1,247,212.46a84.51,84.51,0,0,1-11,14.9c-7.61,8.26-16.68,15.86-26.76,20.85,11.57,19,21.05,39.49,32.24,58.75,24.75,42.59,52.38,86.7,89.89,119.11,14.87,12.85,33.34,25.65,53.57,26.81,21.13,1.21,40.52-11.11,52.4-28.3C469.17,378.52,418.93,329,385.75,301.27Zm17.67,89.94c-2.49,13.65-16.1,19.29-28.52,16.36C357,403.35,341.31,390,328,377.87c-18.41-16.77-35-35.58-50.35-55.23-13.35-17.12-26.35-34.94-36.62-54.15-3.45-6.44-13.14-22-7.65-29.86a3.58,3.58,0,0,1,1-1.17,3.86,3.86,0,0,1,1.07-.75c4.54-2.79,10.43-1.23,15.18.51,9.36,3.44,18.15,8.44,26.6,13.72,40,25,79.62,57.44,108.2,95.44C394.45,358.37,406.36,375.13,403.42,391.21Z" transform="translate(0 0)"/><path class="cls-1" d="M579.36,320.36C566.52,308,549.81,299.52,534,291.51c-14,9-30.61,11.38-47.05,10.18,13,8.06,25.57,16.86,36.8,27.16,2.63,2.41,5.27,4.95,7.82,7.61,13.14,1.59,27.41,2.42,40.29-.71,3.08-.75,12.64-2.75,12.57-7.42C584.39,325.22,581.45,322.35,579.36,320.36Z" transform="translate(0 0)"/><path class="cls-1" d="M150.26,810c-12.27-8.56-26.84-10.27-39.73-17.29-15-8.17-25-23.28-31-39.05C59.11,699.82,89.83,640.85,127,602c-1.88-1.41-3.72-2.92-5.49-4.54a66.61,66.61,0,0,1-6.38,2.86c-12.74,14.29-22.78,31-31.28,48.18-22,44.42-37.9,97-34.38,147.16,1.44,20.41,6.55,42.47,20.76,57.9,15.54,16.87,38.06,22.35,60.28,21.35,15.2-.69,35.06-5,40-22.13S163.76,819.41,150.26,810Z" transform="translate(0 0)"/><path class="cls-1" d="M192.45,253.63a46.88,46.88,0,0,1-17.76-.67c-14.32-3.32-26.47-12.08-36.48-22.84-4.06,7.46-6.74,16-9.51,23.87-6.27,17.73-11.66,35.8-16.39,54-11.53,44.42-20.5,90.82-19.48,136.93.81,37.06,9.44,87,52.31,95.82,17,3.48,35.32,1,47.79-12s18-31.85,21-49.46c7.75-46.15,2.09-94.84-5.06-140.7C204.4,310.06,197.17,282.05,192.45,253.63Zm-4.76,200.19c-2.94,13.9-7.68,33.57-21.23,41.06-11.91,6.57-24.82.4-30.8-11.07-8.54-16.37-9.18-36.82-9-54.9.23-24.61,3.08-49.23,7.34-73.45,3.76-21.35,8.34-42.9,15.74-63.31,2.55-7,8-26.2,18.28-25.56a4.59,4.59,0,0,1,.77.12,2.28,2.28,0,0,1,.26,0c5.94.93,9,8.7,10.87,13.57,3.84,10.14,5.92,21,7.62,31.68C194.83,357.85,197.34,408.13,187.69,453.82Z" transform="translate(0 0)"/><path class="cls-1" d="M323.47,522.28A326.36,326.36,0,0,1,299.42,488c1.95,17.13-.17,34.53-10.73,48.8-.41.54-.84,1-1.26,1.56,7.91,16.26,16.53,35.32,30,47.25,2.56,2.27,5.82,4.94,8.73,1.63,3.66-4.17,5.09-10.23,6-15.59a135.78,135.78,0,0,0,.82-38.46C329.66,529.66,326.48,526,323.47,522.28Z" transform="translate(0 0)"/><path class="cls-1" d="M49.43,36A286.63,286.63,0,0,0,23,17.85c-1.27-.76-2.55-1.52-3.83-2.26,1.89,3.53,4,7,5.91,10.17a265.89,265.89,0,0,0,21.8,32.12C54.18,67,62.24,76.76,72.48,82.58c4,2.3,16.33,6,16-2.74-.29-7.66-7.94-15.44-12.79-20.59A213.09,213.09,0,0,0,49.43,36Z" transform="translate(0 0)"/><path class="cls-1" d="M179.91,280.3c-1.84-4.87-4.93-12.64-10.87-13.57a2.28,2.28,0,0,0-.26,0,4.59,4.59,0,0,0-.77-.12c-10.25-.64-15.73,18.55-18.28,25.56-7.4,20.41-12,42-15.74,63.31-4.26,24.22-7.11,48.84-7.34,73.45-.17,18.08.47,38.53,9,54.9,6,11.47,18.89,17.64,30.8,11.07,13.55-7.49,18.29-27.16,21.23-41.06,9.65-45.69,7.14-96-.16-141.84C185.83,301.3,183.75,290.44,179.91,280.3Zm.78,169c-2.34,12.37-6.45,34.82-20.27,39.82-14.06,5.09-20.53-13-22.9-23.3-4.91-21.27-3.51-44.27-1.66-65.82a502,502,0,0,1,12-73.41c3.84-16.18,7.84-34.31,16.77-48.58a16.65,16.65,0,0,1,2.59-3.2c.21-.19.3-.3.37-.36a3.85,3.85,0,0,1,1.57,1.51,31.1,31.1,0,0,1,3.55,7.14c2.89,7.66,4.59,15.8,6.11,23.82,4.35,23,6,46.66,6.59,70.08C186,401.08,185.19,425.57,180.69,449.29Z" transform="translate(0 0)"/><path class="cls-1" d="M277.23,250.94c-8.45-5.28-17.24-10.28-26.6-13.72-4.75-1.74-10.64-3.3-15.18-.51a3.86,3.86,0,0,0-1.07.75,3.58,3.58,0,0,0-1,1.17c-5.49,7.89,4.2,23.42,7.65,29.86,10.27,19.21,23.27,37,36.62,54.15C293,342.29,309.62,361.1,328,377.87c13.28,12.1,29,25.48,46.87,29.7,12.42,2.93,26-2.71,28.52-16.36,2.94-16.08-9-32.84-18-44.83C356.85,308.38,317.27,276,277.23,250.94ZM393.56,395.15c-8.21,12.34-27.14,1.56-35.91-3.95-19.31-12.13-35.75-29.18-51-46a501.8,501.8,0,0,1-45.45-58.43,269.15,269.15,0,0,1-14.88-24.87c-2.62-5-5.79-11-6.49-16.59a6.27,6.27,0,0,1,0-2.14,9.78,9.78,0,0,1,2.5-.08,38.22,38.22,0,0,1,8.38,2.53c7.91,3.13,15.36,7.64,22.58,12.11,20.61,12.75,39.88,27.82,58.15,43.76s36.06,33.19,50.27,53C388.82,364.27,401.87,382.66,393.56,395.15Z" transform="translate(0 0)"/><path class="cls-1" d="M458.87,126.19c-22.47-3.43-45.58-2.53-68.16-.64A541.58,541.58,0,0,0,319,136.43c-13.81,3-27.78,6.56-40.84,12.11-5.42,2.3-16.13,6.48-15.71,14a5.33,5.33,0,0,0,.13.83c0,.07,0,.14,0,.21,1.53,10.23,20.85,13.79,28.45,15.72,21,5.34,42.82,7.81,64.37,9.51a466.82,466.82,0,0,0,74.41.38c18.52-1.51,38.79-3.91,55.29-13.2,11.15-6.28,18.13-18.22,12.1-30.72C490.75,132,471.81,128.17,458.87,126.19Zm19.18,44.7c-17.9,8.89-40.06,10.21-59.62,11.23A500.81,500.81,0,0,1,343.64,180c-20-2-40.52-4.68-59.78-10.81a53.59,53.59,0,0,1-10.47-4.36,7.71,7.71,0,0,1-3.1-2.57,10.21,10.21,0,0,1,1.18-1.23,27.82,27.82,0,0,1,6.18-3.72c6.93-3.44,14.47-5.7,21.86-7.85C321.43,143,344.1,139,366.7,136c24-3.16,48.38-5,72.59-3.84,15.22.71,36.44,1.69,48.2,13C497.84,155.13,487.63,166.13,478.05,170.89Z" transform="translate(0 0)"/><path class="cls-1" d="M87.54,930.66c-7.56-14.92-13.62-30.43-17-46.86a4.24,4.24,0,0,0-.31-.91c-2.76-7.36-10-.28-12.48,3.75C50,899.12,46.4,914.83,44.47,929.19c-3,22.6,1.15,72.87,34.14,70.74,9.11-.58,20.15-6,25.29-13.8,4.52-6.84,2.41-15.85-.25-22.92C99.41,951.9,93,941.41,87.54,930.66Zm5.62,55.57c-8.31,6-19.37,8.43-27.62,1.33-9.77-8.41-13-23.6-14.09-35.85-1.21-14.14,1.12-28.47,5.06-42a99.7,99.7,0,0,1,5.87-15.33c.55-1.14,1.17-2.25,1.82-3.35,5,20.14,13.91,38.6,23.55,56.91C93.07,958,106,977,93.16,986.23Z" transform="translate(0 0)"/><path class="cls-1" d="M129.9,898.4c-5.57-4.47-9.85-.31-10.07,5.9-.39,10.87,4.19,22.7,8,32.62,7.6,19.68,28.92,58.67,55.3,46,9.4-4.54,15.16-17.28,15.75-27.27.54-9-5.08-16.91-11.42-22.62C170.64,917.8,147,913.17,129.9,898.4ZM190.46,960c-2.3,9.7-10.23,19.48-20.9,17-11.79-2.78-20.75-16.18-26.5-26a131,131,0,0,1-12.21-29.26A100.2,100.2,0,0,1,128,909q-.2-1.21-.27-2.43c11.18,8.6,24.6,14,36.94,20.64C176.73,933.69,194.37,943.5,190.46,960Z" transform="translate(0 0)"/><path class="cls-1" d="M239.81,859.77c-22.72,2.48-41.3,19.65-63.86,22.44a2,2,0,0,0-.23.06,4.52,4.52,0,0,0-.8.08c-7.32,1.55-1.84,8.57,1.33,11,8.83,6.69,20,11,30.38,14.56,17.45,6.06,52,11.74,60.32-11.61,3.28-9.19,1-20.75-5-28.4C256.49,860.84,248.36,858.84,239.81,859.77Zm-16.07,44.57c-10.33-1.77-20.41-5.58-29.88-10a110.22,110.22,0,0,1-10.55-5.67h0c12.65-3.11,24.48-9.64,36.38-14.68,13.68-5.79,32.94-13.11,39.59,5.44C267.69,903,240.24,907.15,223.74,904.34Z" transform="translate(0 0)"/><path class="cls-1" d="M820.79,43.88c-46.9-11.48-99.51,1.34-143.48,18.35C652.19,72,627.09,84.32,605.84,101.3c3.9-45.35-77.5-58.06-112.07-60-84.17-4.68-164,22.51-239.42,57.39-13.94,6.45-27.82,13-41.75,19.51l-.66-.44A159.63,159.63,0,0,0,148.25,93.5c-14.72-2.1-34.49-2.63-45.59,9.29a5.3,5.3,0,0,0-.62.63,4.34,4.34,0,0,0-.52.74c-9.32,12.53-6.08,32-3.14,46.06a180.59,180.59,0,0,0,22.73,56.9C104,244,86.28,280.69,72.46,319a479.54,479.54,0,0,0-27.4,125.2c-2.83,36.35-1.26,74.63,9.47,109.66,6.54,21.38,19.39,47,44.23,49.17a30.61,30.61,0,0,0,3.95.06C75.73,637,59,680.68,49.11,722.26,39.28,763.59,33.36,817.6,60.49,853.9c12.56,16.81,31.28,25.48,51.62,28.15,25.13,3.29,61.44-1.21,66.9-31.67,2.52-14-4.29-27.08-13.43-37.11-11-12.08-24.89-17.89-40-22.83-37-12.1-49.4-55.72-43.31-91.24,6-34.75,27-67.76,51.31-92.8a66.15,66.15,0,0,0,60.78,3.67c19.61-8.52,39.18-26.65,40.62-49.29,16.81-.65,34.19-5.18,46.77-16.48,4.15,8.24,8.51,16.37,13.27,24.27,5.68,9.42,12.81,22,23.13,26.93s17.05-6.33,19.8-14.72c4-12.29,4.52-26.34,3.58-39.57A80.67,80.67,0,0,0,361,553.76c30.23,13.47,54.2-10.12,69.38-34.35,11.64,9.58,25.42,15.71,40.81,15.06,14.9-.64,28.68-8.39,38.7-19.21,21.72-23.46,20.94-57.92.39-81,23.88-14.79,49.27-37.56,40-68.52A63.47,63.47,0,0,0,539.08,345c12.79,1.06,26,.82,38.25-2.63,8.35-2.35,18.25-9.53,13.68-19.38s-16.25-16.84-25.1-22.52c-8.07-5.18-16.48-9.79-25-14.2,15-13.07,21.38-32.74,22.3-52.34,21.85-1.29,39.55-20,48.36-39a67.91,67.91,0,0,0-2.38-62.64C651.08,91.33,718.14,58.74,772,96c14.39,10,18.09,24.48,23.57,40.08,5.33,15.18,15.48,28.81,29.09,37.41a37.63,37.63,0,0,0,36.1,2.5c13.45-6.23,19.88-21.57,21.84-35.44,3.19-22.47,0-47.54-13.29-66.36C857.83,57.92,839.7,48.51,820.79,43.88ZM104.9,143.21c-1.76-9.8-4.23-25.68,2.63-34.25,11.2-12.86,34.22-9.22,48.7-6.1A153.19,153.19,0,0,1,219.71,133c16.4,13.29,30.18,32.07,28.18,54.27-2.24,24.82-26.49,49.49-49.13,57C163.88,255.76,136.24,220,122.09,193A174.49,174.49,0,0,1,104.9,143.21Zm148.45,22.72c-3.55-11.63-10.57-21.7-19.13-30.34,8.59-4.77,18.67-7.72,27.71-10.86,19.95-6.91,40.31-12.67,60.82-17.67,47.41-11.57,97.95-20.33,146.81-14.61,19.24,2.25,39.72,7.63,54.77,20.53,14.45,12.38,20.42,31.28,19.17,50-2.71,40.79-50.92,50.09-83.27,52.43-43.18,3.12-87-2.63-129.51-10-25.35-4.39-50.3-11.19-75.62-15.58A53.79,53.79,0,0,0,253.35,165.93Zm132.4,135.34c33.18,27.68,83.42,77.25,51.58,123.31-11.88,17.19-31.27,29.51-52.4,28.3-20.23-1.16-38.7-14-53.57-26.81-37.51-32.41-65.14-76.52-89.89-119.11-11.19-19.26-20.67-39.72-32.24-58.75,10.08-5,19.15-12.59,26.76-20.85a84.51,84.51,0,0,0,11-14.9C295.44,238.1,343.49,266,385.75,301.27Zm-176.91,37.3c7.15,45.86,12.81,94.55,5.06,140.7-3,17.61-8.39,36.3-21,49.46s-30.84,15.5-47.79,12C102.27,532,93.64,482,92.83,444.93c-1-46.11,8-92.51,19.48-136.93,4.73-18.21,10.12-36.28,16.39-54,2.77-7.82,5.45-16.41,9.51-23.87,10,10.76,22.16,19.52,36.48,22.84a46.88,46.88,0,0,0,17.76.67C197.17,282.05,204.4,310.06,208.84,338.57ZM79.54,753.66c6,15.77,16,30.88,31,39.05,12.89,7,27.46,8.73,39.73,17.29,13.5,9.41,25.14,25.64,20.23,42.79s-24.76,21.44-40,22.13c-22.22,1-44.74-4.48-60.28-21.35C56,838.14,50.93,816.08,49.49,795.67,46,745.53,61.86,692.93,83.87,648.51c8.5-17.15,18.54-33.89,31.28-48.18a66.61,66.61,0,0,0,6.38-2.86c1.77,1.62,3.61,3.13,5.49,4.54C89.83,640.85,59.11,699.82,79.54,753.66Zm252.67-182c-.95,5.36-2.38,11.42-6,15.59-2.91,3.31-6.17.64-8.73-1.63-13.48-11.93-22.1-31-30-47.25.42-.52.85-1,1.26-1.56,10.56-14.27,12.68-31.67,10.73-48.8a326.36,326.36,0,0,0,24.05,34.31c3,3.71,6.19,7.38,9.56,10.88A135.78,135.78,0,0,1,332.21,571.62ZM579.36,320.36c2.09,2,5,4.86,5.08,8,.07,4.67-9.49,6.67-12.57,7.42-12.88,3.13-27.15,2.3-40.29.71-2.55-2.66-5.19-5.2-7.82-7.61-11.23-10.3-23.82-19.1-36.8-27.16,16.44,1.2,33-1.18,47.05-10.18C549.81,299.52,566.52,308,579.36,320.36ZM604.89,191c-7.69,17.77-24.92,35.94-45.53,35.2a3.52,3.52,0,0,0-3.74,3.78,1.75,1.75,0,0,0,0,.24c-.24,19.8-6.23,39.93-22.36,52.42-18,13.94-42.56,13.29-63.64,8.57a3.93,3.93,0,0,0-2.06.08c-3,.7-4.63,5.25-1.23,7.2,20.23,11.59,43.57,25,60.13,43.31a4.1,4.1,0,0,0,1.39,1.57,87.63,87.63,0,0,1,13,19.27c14.64,30.19-15.73,53.89-38.51,67.3a2.83,2.83,0,0,0-.28.2c-.13.09-.25.17-.37.27l-.1.08a3.65,3.65,0,0,0-.29,5.62c20.78,19.95,22.73,50.21,4.14,72.46a50.2,50.2,0,0,1-32.68,17.95c-15.17,1.64-29.15-5.49-40.14-15.47a3.88,3.88,0,0,0-6-.25,4.34,4.34,0,0,0-.94,1.47c-8.14,13.75-17.95,27.4-32.54,34.62-11.3,5.58-23.78,2.9-34.32-3-13.13-7.3-23.57-19.3-32.81-31-12.18-15.38-22.31-32.44-31.84-49.57-.06-.12-.13-.22-.19-.33l-.25-.45c-2.45-4.4-9.15-.46-6.7,3.95a2,2,0,0,0,.11.2c6.31,21.3,9.16,45.62-4.16,64.84C271.51,548,250,552.93,231.31,553a1.75,1.75,0,0,0-.24,0,3.54,3.54,0,0,0-3.75,3.78c.62,20.48-16.6,36.58-33.48,44.94-23.65,11.72-50.4,6.39-69-11.91a3.58,3.58,0,0,0-4.51-.57c-.11.05-.22.08-.33.14-10.11,5.58-21.37,8.17-32,2.48C76.92,586,70.23,573.31,65.65,562.07,52,528.54,50.56,489.64,52.22,453.91c2-43.66,11.83-87,26.07-128.15,13.19-38.11,30.81-74.46,47.79-111,2.1,3.09,4.34,6.14,6.74,9.1-5.52,9-8.82,20.08-12.27,29.92-7,19.8-12.75,40-17.83,60.39-11.89,47.63-20.93,98.22-16.78,147.48,3.17,37.79,18,79.3,59.45,87.06,17.26,3.23,35,.51,48.88-10.67,13.51-10.86,20.51-28.37,24.64-44.77,11.13-44.25,6.18-92.84.21-137.48-4.63-34.6-11.68-68.66-18.83-102.79-.08-.39-.16-.77-.23-1.15.64-.2,1.29-.41,1.93-.64,5.94,9.81,10.9,20.3,16.36,30.37,10.62,19.56,21.72,38.85,33.57,57.68,25.21,40.05,54.87,83.38,95.79,108.53,15.94,9.8,34.49,15.5,53.12,11.67,20.46-4.19,38.75-21,48.19-39.24,23.88-46.22-21.83-93.49-53.67-121-43.55-37.68-94.17-66.94-144.84-93.74a66,66,0,0,0,2.92-8c28.26,4.9,56.1,12.39,84.45,17.07,45.43,7.5,93.05,13.39,139,7,34.22-4.76,71.85-19.88,74.5-59.63,1.23-18.54-5-37.4-17.73-50.86-13.09-13.79-32-20.62-50.15-24.26-47.13-9.46-97.78-1.44-144.18,8.48-36.1,7.71-73.88,17-107.43,33-1.2.57-2.38,1.19-3.54,1.84-2.7-2.35-5.49-4.57-8.34-6.68,35.66-16.65,71.09-33.87,108.1-47.29,41.05-14.88,84.19-24.54,127.79-26.92,35.89-2,74.1.2,107.95,13.35,11.63,4.52,23.75,11.36,30.49,22.3,6.58,10.67,3.63,23-2,33.33-.06.13-.1.25-.15.37a3.68,3.68,0,0,0,.58,4.51C610.59,141.72,615.21,167.17,604.89,191Zm269.54-48c-2.81,15.77-13.71,29.21-30.48,28.78-17.49-.44-31.67-17.52-38.6-32.08C799.33,127,798,112.8,789,101.55c-11.26-14.16-28.76-22.89-45.93-27.33-32.22-8.33-65.86,2.42-93.94,18.38a223.63,223.63,0,0,0-44.22,33c-1.47-2-3.05-4-4.74-5.92q1.47-2.91,2.55-5.69a4.58,4.58,0,0,0,.6-.44c35.2-31.7,84-50.09,129.51-59.92C773,45,829.32,40.1,859.65,74.43,875.54,92.41,878.48,120.13,874.43,143Z" transform="translate(0 0)"/><path class="cls-1" d="M979.4,50.05c-15.62-7.72-34.07-8.19-51-6-14,1.84-28.42,5.83-40.72,13-4.19,2.42-10.91,9.75-3.75,12.56a3.89,3.89,0,0,0,.91.31c16.3,3.54,31.55,9.8,46.36,17.43,10.71,5.51,21,11.84,32.19,16.42,7.33,3,15.54,4.43,22.72.35,7.85-4.46,13.22-16.8,13.81-25.44C1000.88,65,990.68,55.63,979.4,50.05Zm6.86,43.26c-8.31,12.88-27.15.13-36.42-4.86C931.17,78.39,912.52,68.82,892,63.57c.67-.39,1.35-.76,2-1.13a87,87,0,0,1,14.48-5.87,117.81,117.81,0,0,1,41.07-5.71c13,.47,27.16,4.2,36.9,13.25C995.42,72.41,992.12,84.22,986.26,93.31Z" transform="translate(0 0)"/><path class="cls-1" d="M939.09,128.8c-10.51-4.36-21.8-8.36-33.24-9-6.44-.37-11.54,4.1-6.84,10.12,14.22,16.88,19.38,39.76,33.07,57.16,13.4,17,36.61,16,49.53-1.61,7.5-10.2,1.31-22.92-5.48-31.41C966.81,142.38,952.6,134.41,939.09,128.8Zm20.63,62.49c-15.53,4.56-25.51-13.54-31.57-24.8-6.94-12.89-12.24-27-21-38.81l.94.09a71.56,71.56,0,0,1,12.33,2.68,134,134,0,0,1,28.89,11.94c10.57,5.85,22.22,14.56,26.85,26.19S969.51,188.42,959.72,191.29Z" transform="translate(0 0)"/><path class="cls-1" d="M894.37,177.53c-2.2-3.39-9.81-10.35-11.53-2.32a4.41,4.41,0,0,0-.09.86c0,.07,0,.12,0,.18-2.84,22.38-19.08,40.89-22.45,63.26-3,20,15.39,34.17,34.52,29.08,24.11-6.43,19.08-41.8,13.91-59.16A124.85,124.85,0,0,0,894.37,177.53Zm-4.08-.11s0-.08,0-.12,0,.09-.05.15A0,0,0,0,0,890.29,177.42Zm-10.82,82.82c-18.12-5.63-11-25.41-5.87-38.25,5.09-12.67,12.14-25,15.45-38.32,1.77,2.88,3.29,5.92,4.77,9A129.71,129.71,0,0,1,904,222.4C907.81,240.34,903.66,267.74,879.47,260.24Z" transform="translate(0 0)"/><path class="cls-1" d="M53.78,206.37a5.78,5.78,0,0,0-.64,2.06c-2.6,12.19,5,24.36,16.08,29.32,12.46,5.59,26.6-2.78,29.24-16.09C103,198.79,63.19,183.6,53.78,206.37Zm18,24c-7.7-3.46-13.19-12.53-11-20.95C66.07,194.77,90,205.93,91,218.25,91.74,228.27,79.89,234,71.83,230.41Z" transform="translate(0 0)"/><path class="cls-1" d="M209.6,53.53a4.36,4.36,0,0,0-1.06.22,4.2,4.2,0,0,0-1,.41c-22.37,9.22-8.38,47.51,13.92,45.28,13.64-1.37,21.94-16.14,17.5-28.63C234.78,59,221.79,51,209.6,53.53Zm10.69,38.2c-13.18,1.32-24.24-25.26-9.68-30.43,8.23-2.15,15.89,3,20,9.93A13.76,13.76,0,0,1,220.29,91.73Z" transform="translate(0 0)"/><path class="cls-1" d="M188.31,784.55a4.38,4.38,0,0,0-.68.63,4.44,4.44,0,0,0-.58.75,13.42,13.42,0,0,0,2,18.35C195.6,810,204.25,807,209,800.54c4.29-5.89,2.5-12.8-3-17C200.73,779.48,193.1,780.29,188.31,784.55Zm15,10.46c-1.56,3.2-5.32,5.79-8.63,3.8-2.7-1.62-3.66-5.67-1.56-8.1a6.37,6.37,0,0,1,7.67-1.23C203.1,790.64,204.42,792.71,203.31,795Z" transform="translate(0 0)"/><path class="cls-1" d="M154.39,749.63c-6.7-1.11-14,2.45-15.44,9.58a5,5,0,0,0-.07.75c0,.1,0,.19-.07.29-.89,7.1,3.44,13.81,10.65,14.9a13,13,0,0,0,15-10.41C165.85,757.57,161.66,750.83,154.39,749.63ZM151,767.52c-3.57-.55-4.64-3.32-4.43-6.51.67-2.73,2.93-3.8,5.67-3.79,3.45,0,4.95,2.48,4.73,5.67A5.19,5.19,0,0,1,151,767.52Z" transform="translate(0 0)"/><path class="cls-1" d="M124.64,708.7A13.92,13.92,0,0,0,108.88,717a4.17,4.17,0,0,0-.34.92,4.09,4.09,0,0,0-.18.94c-1.14,6.44,2.26,12.13,8.78,13.79,7,1.78,13.67-2.13,16.23-8.69A11.39,11.39,0,0,0,124.64,708.7Zm1.46,12.53c-1.34,5.64-11.67,5.38-10.07-1.19C117.66,714.91,127.63,714.72,126.1,721.23Z" transform="translate(0 0)"/><path class="cls-1" d="M127.75,661.5c-7.13,1.62-9.46,8.88-8.17,15.37a4.94,4.94,0,0,0,.27.87c2.11,6.38,8.38,9.92,14.91,7.38,6.73-2.62,10.59-10.36,7.66-17.22C140,662.24,133.32,660.23,127.75,661.5Zm-.68,13.29c-.49-2.43-.06-4.8,2.27-5.61,1.8-.63,4.52-.31,5.7,1.34C138.46,675.32,129,682.17,127.07,674.79Z" transform="translate(0 0)"/><path class="cls-1" d="M175.12,626.13c-5.43-3.15-13.88-2.4-17.49,3.11a4.13,4.13,0,0,0-.54.9,4.57,4.57,0,0,0-.34.85c-2.29,6.14-1.36,13,5.28,15.92,5.36,2.38,12.57,1.81,16.68-2.75C183.75,638.55,181.2,629.67,175.12,626.13ZM172.91,639c-1.56,1.74-4.7,1.77-6.95,1.13-2.87-.81-3.35-3.24-2.17-6C166.49,628.83,177,634.48,172.91,639Z" transform="translate(0 0)"/><path class="cls-1" d="M788.39,169.92a4.46,4.46,0,0,0-.76.59,4.78,4.78,0,0,0-.62.67,14.62,14.62,0,0,0-1.37,17.42,11.67,11.67,0,0,0,16.62,3.89c6.5-4.22,10-13,4.92-19.67C802.56,166.71,794.4,165.36,788.39,169.92Zm9.43,16.15c-2.33,1.51-4.37.4-5.74-1.86a6.52,6.52,0,0,1,1-8.17c2.3-2,5.92-1.18,7.7,1.18C803.31,180.51,800.82,184.12,797.82,186.07Z" transform="translate(0 0)"/><path class="cls-1" d="M763.18,121.12l-.34.08a5.51,5.51,0,0,0-.69.06c-6.62,1.28-10.37,8-9.7,14.5.75,7.34,6.72,12.31,14,11.37a13.11,13.11,0,1,0-3.32-26Zm3,18.18c-6.87,1.83-8.25-8.92-2.24-10.41,3-.19,5.41.72,6.27,4S769.05,138.54,766.19,139.3Z" transform="translate(0 0)"/><path class="cls-1" d="M722.34,90.2a3.7,3.7,0,0,0-.94.18,3.91,3.91,0,0,0-.91.34c-13.51,5.37-10,28.7,6.13,24.93,7-1.64,10.72-9.22,9.47-16C734.8,92.78,728.91,89.06,722.34,90.2Zm2.9,17.69c-6.78,2.64-7.28-8.21-1.77-10C729.65,96.43,730.21,106,725.24,107.89Z" transform="translate(0 0)"/><path class="cls-1" d="M679.13,104.89a3.7,3.7,0,0,0-.87-.28c-6.65-1.39-12.79.94-15.14,7.7-1.9,5.48.59,12.38,5.7,15.09,6.33,3.37,14.3-.26,17.18-6.52A11.36,11.36,0,0,0,679.13,104.89Zm-6.83,15.52c-1.89-1-2.25-3.72-1.83-5.55.62-2.7,3.13-3.25,5.73-2.71C683.09,114,677.32,123.08,672.3,120.41Z" transform="translate(0 0)"/><path class="cls-1" d="M631.29,140.11a5.4,5.4,0,0,0-.86.33,4.19,4.19,0,0,0-.88.53c-5.57,3.6-5.81,11.46-3.42,17.12,2.87,6.8,12.09,8.92,17.75,4.49,4.61-3.6,5.51-10.92,3.55-16.16C644.71,139.15,637.86,137.66,631.29,140.11Zm8.13,16c-4.1,4.86-10.69-6-5.07-8.92,2.55-1.09,4.82-.76,5.77,1.77C641,151.22,640.87,154.41,639.42,156.12Z" transform="translate(0 0)"/><path class="cls-1" d="M163.66,115.92c-12.53-3.09-31.25-5.52-41.37,4.84a4.24,4.24,0,0,0-.71.7c-10.69,13.63-2.78,37.6,2.54,51.79,7.57,20.16,20.59,42.32,40.83,51.61,22.84,10.47,45.44-5.23,58.15-24.08,13-19.25,7.27-41.16-8-56.95C201.55,129.73,182.41,120.54,163.66,115.92Zm39.4,95.47c-9,7.62-20.39,11.15-31.78,7.6-21.59-6.74-34.83-33.26-41.56-53.11-3.24-9.54-9.94-29.59-2.65-38.89,5.32-6,14.57-6,21.93-5.56,11.2.7,22.42,4.34,32.6,8.95,18.8,8.51,41.77,24.89,41.25,48.13C222.55,191.85,212.63,203.3,203.06,211.39Z" transform="translate(0 0)"/><path class="cls-1" d="M81.74,604.57a3.54,3.54,0,0,0-2.22.06,3.84,3.84,0,0,0-1.46.55c-6.09,2.38-11.71,6.72-16.92,10.47a159.4,159.4,0,0,0-25.63,22.48c-5.35,6-10.92,13.4-11,21.77-.1,6.56,5.36,12.43,11.86,12.29,6.87-.14,13-6.16,17.41-10.77,7.07-7.33,12.93-16,18.31-24.61C73.74,634.08,91.3,606.05,81.74,604.57ZM73.6,618.19A190.46,190.46,0,0,1,63,636.51,141.75,141.75,0,0,1,49.12,655c-3.12,3.44-7.83,8.86-12.8,9.41-5.68.64-3.83-7.67-2.52-10.45,3.31-7,9.31-12.83,14.87-18.07a174.52,174.52,0,0,1,19.88-15.91c2-1.39,4.13-3,6.34-4.38C74.47,616.43,74,617.31,73.6,618.19Z" transform="translate(0 0)"/><path class="cls-1" d="M50.85,22.23C46.93,19.34,6.64-10.54,3.4,3.94a5.52,5.52,0,0,0-.15,3.4,5.66,5.66,0,0,0,.68,2.28c2.91,9.58,8.85,18.65,13.93,27,9,14.81,19.15,29.09,31.06,41.63,8.39,8.82,19,18.14,31.57,19.24,9.85.86,19.26-6.87,19.76-16.84.51-10.52-7.88-20.48-14.34-27.78C75.64,41.28,63.25,31.4,50.85,22.23ZM72.48,82.58C62.24,76.76,54.18,67,46.89,57.88a265.89,265.89,0,0,1-21.8-32.12c-1.88-3.22-4-6.64-5.91-10.17,1.28.74,2.56,1.5,3.83,2.26A286.63,286.63,0,0,1,49.43,36,213.09,213.09,0,0,1,75.68,59.25c4.85,5.15,12.5,12.93,12.79,20.59C88.81,88.6,76.52,84.88,72.48,82.58Z" transform="translate(0 0)"/><path class="cls-1" d="M64.82,587.57a3.8,3.8,0,0,0-1.72.11c-14.73,4.16-29.88,6.69-43.53,14.08-5.28,2.85-11.36,7.56-11.87,14.1a13.19,13.19,0,0,0,8.68,13.27C29.07,633.8,45.85,617.51,54.06,610a92.46,92.46,0,0,0,13-14.19C69.32,592.54,68.69,587.89,64.82,587.57ZM43.25,609.12c-4.31,3.67-19.54,17.12-25.91,11.85C7.91,613.15,31.9,604.59,36,603.14c6.3-2.21,12.75-3.76,19.19-5.34A140.86,140.86,0,0,1,43.25,609.12Z" transform="translate(0 0)"/><path class="cls-1" d="M52.66,562.87h-.25a4.82,4.82,0,0,0-.79-.13C39,561.9,27,556.34,14.08,558.46,2.63,560.34-5.46,574.59,4.5,583.9c9.09,8.47,26.7,0,35.73-4.28,4.83-2.3,9.79-5,13.82-8.55C56.65,568.76,57,563.46,52.66,562.87Zm-9.72,6.47a91.52,91.52,0,0,1-12,5.92c-4.35,1.78-19.83,8.28-22.34,1.07-5.21-15,20.26-10.1,34.73-7.23Z" transform="translate(0 0)"/><path class="cls-1" d="M663.2,25.07c-8.42-1.45-16.42,4.78-22.45,9.86-8.68,7.3-15.93,16.4-22.66,25.51C614,66,609.3,72.07,606.75,78.64a3.88,3.88,0,0,0-.56,1.48,3.59,3.59,0,0,0-.08,2.21c1.31,9.6,28.14-7.22,30.84-8.87a165.52,165.52,0,0,0,23.8-17.32c5.32-4.71,11.72-11.06,12.58-18.54C674,31.34,669.14,26.1,663.2,25.07Zm-6,23.77a125.79,125.79,0,0,1-18.09,14,193.49,193.49,0,0,1-18.43,10.86c-1.37.71-2.76,1.38-4.16,2,5-9.32,13.29-18.21,19.74-25.4,5.29-5.91,11.11-11.61,18-15.54,2.68-1.53,11-4.28,11.42,1.37C666,40.91,660.14,46,657.17,48.84Z" transform="translate(0 0)"/><path class="cls-1" d="M618.57,7.66c-6.45-.3-11.25,5.94-14.25,10.83C596,32,593.74,48.42,589.47,63.47a4,4,0,0,0-.12,1.75c.32,3.63,4.45,4.53,7.65,2.57,5.15-3.14,9.56-8,13.68-12.34,9-9.42,22.4-23.87,20.33-38.11C630.17,11.51,623.9,7.91,618.57,7.66Zm-7.75,35.91a141.27,141.27,0,0,1-11,11.79l-.3.27C604,38.54,613.08,7.94,622.74,17.5,628.41,23.11,613.94,39.8,610.82,43.57Z" transform="translate(0 0)"/><path class="cls-1" d="M571,.63c-5.74,1.13-8.9,6.78-10.06,12-2.91,13.26,3.06,26.05,3.84,39.09a4.28,4.28,0,0,0,.3,1.3c1.13,3.41,4.69,4.06,7.62,1.51,3.7-3.2,6.15-8.78,8.31-13,4.79-9.46,12.78-26.31,5.6-36.41C583.15.21,576.47-.44,571,.63Zm6.82,29A90.86,90.86,0,0,1,572,42c-.27.48-.55.95-.83,1.43-2.91-14.11-8-37.51,6.38-35.27C585.8,9.47,579.47,25.3,577.84,29.66Z" transform="translate(0 0)"/></svg>